<svg width="220" height="48" viewBox="0 0 220 48" fill="none" xmlns="http://www.w3.org/2000/svg">
<path fill-rule="evenodd" clip-rule="evenodd" d="M22 40C22 38.8954 22.8954 38 24 38H42C43.1046 38 44 38.8954 44 40C44 41.1046 43.1046 42 42 42H24C22.8954 42 22 41.1046 22 40Z" fill="#FDBAA3"/>
<path fill-rule="evenodd" clip-rule="evenodd" d="M36 7.75732C35.4053 7.75732 34.8348 7.9936 34.4143 8.41418L9.80597 33.0225L8.74878 37.2512L12.9775 36.194L37.5858 11.5858C37.7941 11.3775 37.9593 11.1303 38.072 10.8582C38.1847 10.5861 38.2427 10.2945 38.2427 9.99996C38.2427 9.70546 38.1847 9.41383 38.072 9.14174C37.9593 8.86965 37.7941 8.62243 37.5858 8.41418C37.3776 8.20593 37.1304 8.04074 36.8583 7.92803C36.5862 7.81533 36.2945 7.75732 36 7.75732ZM31.5858 5.58575C32.7565 4.41503 34.3444 3.75732 36 3.75732C36.8198 3.75732 37.6316 3.91879 38.389 4.23252C39.1464 4.54624 39.8346 5.00607 40.4143 5.58575C40.9939 6.16543 41.4538 6.85362 41.7675 7.61101C42.0812 8.3684 42.2427 9.18017 42.2427 9.99996C42.2427 10.8198 42.0812 11.6315 41.7675 12.3889C41.4538 13.1463 40.9939 13.8345 40.4143 14.4142L15.4143 39.4142C15.1579 39.6705 14.8368 39.8523 14.4851 39.9403L6.48511 41.9403C5.80356 42.1106 5.08259 41.9109 4.58583 41.4142C4.08907 40.9174 3.88937 40.1964 4.05976 39.5149L6.05976 31.5149C6.14767 31.1632 6.32951 30.8421 6.58583 30.5858L31.5858 5.58575Z" fill="white"/>
<path d="M78.5199 12.48C78.5199 12.3467 78.5599 12.24 78.6399 12.16C78.7466 12.0533 78.8666 12 78.9999 12H83.6799C83.8133 12 83.9199 12.0533 83.9999 12.16C84.1066 12.24 84.1599 12.3467 84.1599 12.48V39.52C84.1599 39.6533 84.1066 39.7733 83.9999 39.88C83.9199 39.96 83.8133 40 83.6799 40H79.1599C78.8933 40 78.7066 39.8933 78.5999 39.68L68.2399 22.56C68.1866 22.48 68.1333 22.4533 68.0799 22.48C68.0266 22.48 67.9999 22.5333 67.9999 22.64L68.0799 39.52C68.0799 39.6533 68.0266 39.7733 67.9199 39.88C67.8399 39.96 67.7333 40 67.5999 40H62.9199C62.7866 40 62.6666 39.96 62.5599 39.88C62.4799 39.7733 62.4399 39.6533 62.4399 39.52V12.48C62.4399 12.3467 62.4799 12.24 62.5599 12.16C62.6666 12.0533 62.7866 12 62.9199 12H67.4399C67.7066 12 67.8933 12.1067 67.9999 12.32L78.3199 29.36C78.3733 29.44 78.4266 29.48 78.4799 29.48C78.5333 29.4533 78.5599 29.3867 78.5599 29.28L78.5199 12.48Z" fill="white"/>
<path d="M99.0015 40.44C96.9215 40.44 95.0815 40.0133 93.4815 39.16C91.9082 38.3067 90.6815 37.12 89.8015 35.6C88.9215 34.0533 88.4815 32.28 88.4815 30.28V21.72C88.4815 19.7467 88.9215 18 89.8015 16.48C90.6815 14.96 91.9082 13.7867 93.4815 12.96C95.0815 12.1067 96.9215 11.68 99.0015 11.68C101.108 11.68 102.948 12.1067 104.522 12.96C106.122 13.7867 107.362 14.96 108.242 16.48C109.122 18 109.562 19.7467 109.562 21.72V30.28C109.562 32.28 109.122 34.0533 108.242 35.6C107.362 37.1467 106.122 38.3467 104.522 39.2C102.948 40.0267 101.108 40.44 99.0015 40.44ZM99.0015 35.6C100.468 35.6 101.655 35.1333 102.562 34.2C103.468 33.2667 103.922 32.0267 103.922 30.48V21.68C103.922 20.1333 103.468 18.8933 102.562 17.96C101.682 17 100.495 16.52 99.0015 16.52C97.5348 16.52 96.3482 17 95.4415 17.96C94.5615 18.8933 94.1215 20.1333 94.1215 21.68V30.48C94.1215 32.0267 94.5615 33.2667 95.4415 34.2C96.3482 35.1333 97.5348 35.6 99.0015 35.6Z" fill="white"/>
<path d="M132.893 12C133.026 12 133.133 12.0533 133.213 12.16C133.319 12.24 133.373 12.3467 133.373 12.48V16.4C133.373 16.5333 133.319 16.6533 133.213 16.76C133.133 16.84 133.026 16.88 132.893 16.88H125.733C125.599 16.88 125.533 16.9467 125.533 17.08V39.52C125.533 39.6533 125.479 39.7733 125.373 39.88C125.293 39.96 125.186 40 125.053 40H120.373C120.239 40 120.119 39.96 120.013 39.88C119.933 39.7733 119.893 39.6533 119.893 39.52V17.08C119.893 16.9467 119.826 16.88 119.693 16.88H112.733C112.599 16.88 112.479 16.84 112.373 16.76C112.293 16.6533 112.253 16.5333 112.253 16.4V12.48C112.253 12.3467 112.293 12.24 112.373 12.16C112.479 12.0533 112.599 12 112.733 12H132.893Z" fill="white"/>
<path d="M156.411 16.36C156.411 16.4933 156.358 16.6133 156.251 16.72C156.171 16.8 156.065 16.84 155.931 16.84H142.811C142.678 16.84 142.611 16.9067 142.611 17.04V23.24C142.611 23.3733 142.678 23.44 142.811 23.44H151.411C151.545 23.44 151.651 23.4933 151.731 23.6C151.838 23.68 151.891 23.7867 151.891 23.92V27.8C151.891 27.9333 151.838 28.0533 151.731 28.16C151.651 28.24 151.545 28.28 151.411 28.28H142.811C142.678 28.28 142.611 28.3467 142.611 28.48V34.96C142.611 35.0933 142.678 35.16 142.811 35.16H155.931C156.065 35.16 156.171 35.2133 156.251 35.32C156.358 35.4 156.411 35.5067 156.411 35.64V39.52C156.411 39.6533 156.358 39.7733 156.251 39.88C156.171 39.96 156.065 40 155.931 40H137.451C137.318 40 137.198 39.96 137.091 39.88C137.011 39.7733 136.971 39.6533 136.971 39.52V12.48C136.971 12.3467 137.011 12.24 137.091 12.16C137.198 12.0533 137.318 12 137.451 12H155.931C156.065 12 156.171 12.0533 156.251 12.16C156.358 12.24 156.411 12.3467 156.411 12.48V16.36Z" fill="white"/>
<path d="M163.091 40.16C162.184 40.16 161.424 39.8667 160.811 39.28C160.224 38.6667 159.931 37.9067 159.931 37C159.931 36.0667 160.224 35.3067 160.811 34.72C161.397 34.1333 162.157 33.84 163.091 33.84C164.024 33.84 164.784 34.1333 165.371 34.72C165.957 35.3067 166.251 36.0667 166.251 37C166.251 37.9067 165.944 38.6667 165.331 39.28C164.744 39.8667 163.997 40.16 163.091 40.16Z" fill="white"/>
<path d="M193.392 19.48C195.125 19.48 196.472 19.9733 197.432 20.96C198.418 21.92 198.912 23.2667 198.912 25C198.912 25.2133 198.885 25.6133 198.832 26.2L197.192 39.6C197.138 39.8667 196.992 40 196.752 40H194.832C194.592 40 194.472 39.8667 194.472 39.6L196.072 26.76C196.098 26.5733 196.112 26.3067 196.112 25.96C196.112 24.7333 195.765 23.76 195.072 23.04C194.378 22.32 193.432 21.96 192.232 21.96C190.845 21.96 189.685 22.3867 188.752 23.24C187.818 24.0933 187.258 25.24 187.072 26.68L185.472 39.6C185.472 39.7067 185.432 39.8 185.352 39.88C185.272 39.96 185.165 40 185.032 40H183.072C182.832 40 182.712 39.8667 182.712 39.6L184.312 26.76C184.338 26.5733 184.352 26.2933 184.352 25.92C184.352 24.6933 184.005 23.7333 183.312 23.04C182.618 22.32 181.672 21.96 180.472 21.96C179.112 21.96 177.965 22.3867 177.032 23.24C176.125 24.0933 175.578 25.24 175.392 26.68L173.792 39.6C173.792 39.7067 173.752 39.8 173.672 39.88C173.592 39.96 173.485 40 173.352 40H171.392C171.152 40 171.032 39.8667 171.032 39.6L173.432 20.16C173.485 19.8933 173.632 19.76 173.872 19.76H175.832C175.965 19.76 176.058 19.8 176.112 19.88C176.192 19.96 176.218 20.0533 176.192 20.16L175.992 21.76C175.992 21.8133 176.005 21.8533 176.032 21.88C176.085 21.88 176.138 21.8533 176.192 21.8C176.858 21.0267 177.658 20.4533 178.592 20.08C179.525 19.68 180.538 19.48 181.632 19.48C182.965 19.48 184.072 19.76 184.952 20.32C185.858 20.88 186.498 21.6933 186.872 22.76C186.872 22.8133 186.885 22.84 186.912 22.84C186.965 22.84 187.005 22.8133 187.032 22.76C187.725 21.6667 188.632 20.8533 189.752 20.32C190.872 19.76 192.085 19.48 193.392 19.48Z" fill="white"/>
<path d="M219.509 26.48C219.509 27.4933 219.389 28.8533 219.149 30.56C219.149 30.6667 219.109 30.76 219.029 30.84C218.949 30.92 218.842 30.96 218.709 30.96H206.189C206.082 30.96 206.029 31.0133 206.029 31.12C205.922 32.2933 205.869 33.04 205.869 33.36C205.869 34.72 206.295 35.8133 207.149 36.64C208.029 37.44 209.255 37.84 210.829 37.84C211.949 37.84 212.935 37.5867 213.789 37.08C214.669 36.5733 215.402 35.8533 215.989 34.92C216.202 34.68 216.389 34.6267 216.549 34.76L217.949 35.68C218.162 35.8133 218.189 36 218.029 36.24C217.229 37.52 216.135 38.5333 214.749 39.28C213.389 40 211.855 40.36 210.149 40.36C208.309 40.3333 206.829 39.88 205.709 39C204.589 38.12 203.842 36.8933 203.469 35.32C203.309 34.6267 203.229 33.8533 203.229 33C203.229 32.0667 203.309 31 203.469 29.8C203.602 28.6533 203.735 27.7333 203.869 27.04C204.002 26.3467 204.175 25.72 204.389 25.16C205.029 23.4267 206.082 22.04 207.549 21C209.015 19.96 210.695 19.44 212.589 19.44C214.935 19.44 216.669 20.0533 217.789 21.28C218.909 22.5067 219.482 24.24 219.509 26.48ZM212.269 21.92C211.015 21.92 209.922 22.2667 208.989 22.96C208.082 23.6267 207.415 24.5333 206.989 25.68C206.802 26.2133 206.589 27.12 206.349 28.4C206.349 28.5067 206.402 28.56 206.509 28.56H216.549C216.655 28.56 216.709 28.5067 216.709 28.4C216.762 27.3333 216.789 26.6533 216.789 26.36C216.789 25.0267 216.389 23.96 215.589 23.16C214.789 22.3333 213.682 21.92 212.269 21.92Z" fill="white"/>
</svg>
